<?xml version="1.0" standalone="no"?>
<!DOCTYPE svg PUBLIC "-//W3C//DTD SVG 20010904//EN"
 "http://www.w3.org/TR/2001/REC-SVG-20010904/DTD/svg10.dtd">
<svg version="1.0" xmlns="http://www.w3.org/2000/svg"
 width="64.000000pt" height="64.000000pt" viewBox="0 0 64.000000 64.000000"
 preserveAspectRatio="xMidYMid meet">

<g transform="translate(0.000000,64.000000) scale(0.100000,-0.100000)"
fill="#000000" stroke="none">
<path d="M298 616 c-25 -34 -79 -56 -137 -56 l-51 0 0 -35 c0 -47 -21 -86 -65
-122 l-35 -30 26 -47 c25 -45 29 -93 13 -155 -3 -9 7 -17 28 -21 45 -10 82
-36 101 -72 34 -61 34 -61 67 -44 38 20 111 20 149 1 15 -8 30 -15 31 -15 7 0
35 63 35 77 0 8 5 11 10 8 6 -3 10 -2 10 3 0 10 62 39 95 44 14 3 19 9 15 23
-3 11 -5 45 -5 75 0 42 6 63 24 88 l24 34 -37 30 c-45 37 -66 76 -66 123 l0
35 -51 0 c-58 0 -111 22 -138 56 -23 29 -22 29 -43 0z m113 -112 c39 -19 87
-78 100 -123 26 -87 -20 -189 -103 -230 -90 -43 -195 -15 -252 67 -26 36 -30
53 -32 112 -1 44 2 70 9 70 6 0 8 3 4 6 -7 8 60 82 88 97 53 28 132 29 186 1z"/>
<path d="M172 353 c3 -38 3 -38 51 -41 55 -4 77 9 77 44 0 17 6 24 20 24 14 0
20 -7 20 -24 0 -35 22 -48 77 -44 48 3 48 3 51 41 l3 37 -151 0 -151 0 3 -37z
m104 -19 c-6 -16 -46 -20 -46 -4 0 6 6 10 14 10 7 0 17 10 21 23 6 19 8 20 12
4 3 -10 2 -25 -1 -33z m184 28 c0 -10 -5 -23 -12 -30 -15 -15 -38 -16 -38 -2
0 6 7 10 15 10 8 0 15 9 15 20 0 11 5 20 10 20 6 0 10 -8 10 -18z m-240 -32
c0 -5 -4 -10 -10 -10 -5 0 -10 5 -10 10 0 6 5 10 10 10 6 0 10 -4 10 -10z
m180 0 c0 -5 -4 -10 -10 -10 -5 0 -10 5 -10 10 0 6 5 10 10 10 6 0 10 -4 10
-10z"/>
<path d="M292 270 c2 -8 15 -15 28 -15 13 0 26 7 28 15 5 13 3 13 -11 1 -14
-11 -20 -11 -34 0 -14 12 -16 12 -11 -1z"/>
<path d="M444 198 l-19 -23 23 19 c21 18 27 26 19 26 -2 0 -12 -10 -23 -22z"/>
<path d="M303 143 c9 -2 25 -2 35 0 9 3 1 5 -18 5 -19 0 -27 -2 -17 -5z"/>
</g>
</svg>
